<svg width="459" height="77" viewBox="0 0 459 77" fill="none" xmlns="http://www.w3.org/2000/svg">
  <path fill-rule="evenodd" clip-rule="evenodd" d="M30.392 1.954c5.406.209 11.384 1.897 17.394 4.799 6.01 2.901 7.739 2.714 10.181 1.339 2.442-1.377 3.918-2.846 4.482-1.06.225.855-.275 2.217-1.36 3.961-.995 1.6-2.878 4.485-6.653 4.984-3.776.498-4.576-.217-5.44-.357-.864-.14-1.756-.497-3.502 1.324-2.836 2.957-5.403 7.783-7.607 13.465-2.649 6.825-5.241 13.613-9.223 17.928-3.982 4.314-10.557 6.434-15.628 6.21C7.964 54.326.13 50.969 0 40.712c.103-5.17 5.015-8.187 7.72-5.695 1.596 1.335 2.162 4.405.751 5.436-1.757 1.284-2.268 1.777-2.699 2.62-.644 1.26-1.076 4.335 1.704 5.86 2.78 1.525 7.4.149 10.143-1.6 2.742-1.748 4.04-2.674 12.36-16.068 8.387-13.501 11.22-15.387 12.134-16.142 1.19-.984 2.33-1.451 1.015-2.79-1.316-1.339-6.162-4.761-11.496-5.356-5.335-.596-12.06.297-16.042 6.1-3.982 5.802-2.172 12.085 2.254 13.91 4.361 1.799 7.782-1.334 8.745-3.037 1.388-2.453.08-4.703-.316-5.65-.376-.819.157-1.95.813-2.322.969-.548 2.39.025 3.118 1.413.808 1.54.6 4.267.075 5.718-.525 1.45-2.291 5.914-8.19 7.078-5.28 1.041-11.954-2.603-11.909-10.23.05-8.32 5.61-13.06 10.219-15.622 4-2.223 8.773-2.427 9.993-2.38z" fill="#333"/>
  <path fill-rule="evenodd" clip-rule="evenodd" d="M238.067 31c-.072.974.836.615 1.321.419.778-.313 1.913-.34 2.417-.225.665.154 1.242.491 1.242 1.394 0 .903-.644 1.372-1.504 1.662-.861.288-2.006.288-4.3 1.769-2.294 1.48-3.117 4.838-3.117 4.838-1.003 5.957 2.974 7.329 5.697 7.546 2.723.216 7.086-2.069 9.164-5.896 2.078-3.827 1.496-7.535.055-10.215-1.416-2.635-4.955-4.867-6.675-5.48-1.72-.614-2.092-.423-2.826.539-.356.47-1.402 2.674-1.474 3.649zm4.049-8.701c-.187 1.166 1.398 2.057 5.696 1.84 4.3-.216 6.056-2.816 7.167-4.73 1.11-1.912 1.075-4.982.502-6.714-.573-1.734-2.508-3.755-3.835-4.406-1.325-.65-2.042 0-2.759.94-.716.939-1.602 2.28-3.188 5.198-1.863 3.43-3.248 5.781-3.583 7.872zm-76.549 48.748c.573 1.805 2.505 1.679 4.261 1.138 1.756-.542 2.57-.84 4.803-2.644 4.689-3.792 7.052-9.9 6.332-9.99-3.382.359-10.3 4.268-12.387 5.953-1.415 1.142-3.583 3.737-3.009 5.543zM45.55 42.373c-.502 1.372-1.29 4.585.179 5.307 1.47.723 3.977-.289 6.593-2.346 2.616-2.058 4.229-5.09 4.73-6.319.5-1.228-.11-1.623-.43-1.95-.322-.325-.681-.866-.718-1.768-.035-.902.968-1.698 1.972-2.022 1.003-.325 1.074-.686.931-1.806-.143-1.12-1.004-1.697-3.297-1.335-2.293.36-4.8 2.996-7.237 6.715 0 0-2.222 4.152-2.723 5.524zm9.854-17.007c2.759.02 5.16.866 6.45 2.707 1.29 1.843.918 3.684 1.11 4.478.193.794.229 1.426 1.828 1.01 1.598-.415 5.231-2.238 7.99-4.802 2.759-2.563 4.515-4.584 6.88-2.816 1.218.938 1.218 2.852.68 4.117-.537 1.263-1.039 2.562-.358 2.923.68.362 1.96.145 4.228-1.66 2.267-1.806 5.804-4.694 7.38-5.416 1.578-.723 2.795-1.01 3.655.83a4.7 4.7 0 01.18 3.684c-.373.967-1.147 2.743-.61 3.068.538.325 2.043-.398 3.333-1.733s4.084-3.828 6.413-5.307c2.329-1.48 4.769-1.812 4.945 1.877.176 3.688-1.568 5.461-3.189 8.593-1.318 2.548-1.827 2.96-3.01 5.56-1.182 2.6-1.289 3.72-.788 3.972.501.253 2.625-.417 4.477-2.026 1.783-1.55 4.276-3.201 11.195-11.494 2.457-2.78 4.008-4.951 5.393-6.352 1.421-1.438 2.801-1.365 3.948-.606 1.146.758 1.683 2.26.883 4.477-.792 2.192-.599 2.517-.277 2.715.644.396 1.935.145 4.622-1.986 2.687-2.13 5.302-4.188 7.13-5.271 1.827-1.084 3.368-.867 3.762.902.394 1.769-.215 4.117-.537 5.127-.323 1.011-.323 1.48-.036 1.66.286.182 1.569-.2 3.44-1.877 1.87-1.676 4.693-4.513 6.951-5.74 2.257-1.228 3.403-.831 4.12.901.717 1.734-.248 4.285-1.182 6.32-.935 2.036-3.87 7.22-4.909 9.243-1.039 2.022-1.326 3.611-.86 3.863.466.252 2.643.03 5.267-2.455 2.624-2.485 6.365-6.595 10.562-11.504 4.381-5.124 6.093-7.22 7.927-7.053 1.748.095 2.228 1.732 2.081 3.034-.148 1.302-.802 3.437-1.847 5.917s-2.993 7.73-3.208 9.606c-.215 1.877.083 2.241.535 2.547.527.358 2.724-.88 4.065-2.363 2.137-2.361 5.431-6.16 7.122-8.91 1.692-2.751 3.721-6.708 4.689-8.044.968-1.335 2.149-2.258 3.296-1.896 1.146.36 2.054 2.062 1.612 5.452-.442 3.389-1.684 11.878-2.043 14.224-.358 2.348-1.117 5.877-.863 6.036.462.289 1.42-.21 4.093-2.4 2.718-2.225 4.044-3.346 6.839-7.065-.645-1.661.425-5.004 1.548-6.356 1.322-1.595 3.522-2.598 5.8-1.238 2.904 1.733 1.214 4.265.831 4.863-.406.632-1.587 2.009-2.447 3.2-.859 1.192-1.325 4.008.431 5.705s4.854 1.925 8.821.12c3.933-1.793 6.93-5.188 9.99-9.905 3.06-4.715 7.058-12.456 11.143-18.486 4.085-6.03 6.592-8.966 7.883-10.398 1.291-1.432 3.009-2.815.107-3.032-2.902-.218-10.014-1.131-18.761 5.627-6.198 5.668-4.947 12.369-4.658 13.476.407 1.55 1.331 4.354 3.712 3.571 2.259-.742 2.382 1.703 2.161 2.262-.222.558-.692 1.745-3.236 1.384-2.544-.36-4.077-2.669-4.686-3.896-1.053-2.123-2.095-6.272-.139-11.667 2.106-5.804 7.23-9.042 9.519-10.324 1.224-.686 5.983-3.755 14.583-3.611 2.58.072 3.214.253 4.121.361.906.11 1.935.758 3.762-.758s3.368-2.455 4.407-1.732c1.039.722.63 1.354-.036 1.876-.666.523-2.895 1.52-.824 2.492 1.609.756 10.354 4.946 8.097 13.9-.967 3.683-2.719 4.713-3.654 5.38-.936.667-3.082 1.517-3.332 2.816-.251 1.3.68 2.13 1.468 3.25.788 1.118 3.584 6.39-.142 13.865-3.728 7.473-10.424 8.879-13.318 9.256-3.897.506-7.696-1.31-9.255-2.384-1.559-1.073-3.889-4.152-7.629-1.716-3.882 2.53-7.877 5.135-14.04 4.379-6.163-.76-9.182-3.615-11.224-7.91-3.296 3.249-8.167 6.752-9.645 7.754-1.635 1.073-2.8 2.106-3.533 3.241-.338.5-1.308 2.463-1.977 3.747-2.868 5.507-4.502 7.692-8.518 11.145-3.87 3.33-11.094 6.094-15.021 2.89-3.343-3.072-.849-8.624 2.844-11.563 2.756-2.195 6.346-3.887 9.099-5.03 1.884-.781 5.536-2.618 6.175-3.27.502-.515.856-1.312 1.319-3.363 0 0 1.556-7.718 1.665-9.055.107-1.334-.225-2.26-2.34.212-2.219 2.596-5.4 6.035-8.23 7.913-2.831 1.877-6.611 3.31-9.138 2.24-2.1-.891-.771-6.324-.069-8.705.854-2.9 1.399-5.652-.789-3.713 0 0-2.863 3.212-5.77 5.701-2.907 2.489-5.339 4.62-8.492 6.065-3.153 1.444-7.488 1.48-7.166-2.167.18-2.201 2.545-5.695 3.369-7.04.823-1.344 2.544-4.549 2.83-5.993.287-1.444.072-1.842-.215-1.986-.287-.144-1.111-.325-3.439 2.347-2.33 2.672-7.061 9.655-9.71 12.384-2.65 2.73-4.622 4.91-6.486 2.636-1.863-2.275.682-5.975 1.791-7.798 1.11-1.825 2.926-5.009 3.504-6.572.579-1.563.797-2.65.295-2.888-.503-.238-1.83.087-3.548 2.13-1.718 2.042-4.478 5.307-6.951 8.7-2.472 3.395-6.199 8.92-8.993 7.006-2.795-1.913.394-5.993.788-6.932.394-.938 2.649-4.19 3.26-5.38.611-1.19.447-2.939-1.602-1.134 0 0-3.455 3.106-5.695 5.246-2.24 2.14-6.712 6.07-10.904 7.695-4.193 1.625-7.418.866-6.343-3.575.574-2.022 2.403-4.982 3.44-6.498 1.038-1.517 3.691-5.67 2.437-7.186-.645-.65-2.33.759-3.368 1.769-1.04 1.011-3.977 5.091-6.27 8.449-2.294 3.357-5.712 6.87-6.952 7.438-1.24.568-2.436.975-3.583-.615-1.147-1.587.146-3.888 1.11-5.45.966-1.565 3.298-5.525 4.3-7.655 1.004-2.131 1.254-3.61.43-4.045-.824-.432-3.153 1.771-4.909 3.756-1.755 1.985-5.051 7.004-7.631 10.145-2.58 3.142-3.906 4.513-6.056 4.08-2.15-.433-1.72-3.791-.896-5.235.825-1.444 2.939-5.307 4.444-7.834 1.504-2.528 2.436-4.693 2.687-5.633.25-.94.032-2.055-1.541-.902s-3.977 2.564-6.09 3.537c-2.116.975-2.867 1.049-3.62 2.601-.753 1.552-4.73 7.4-8.456 9.929-3.727 2.527-8.134 4.802-12.935 3.43-4.802-1.372-6.127-7.113-4.55-11.915 1.576-4.802 6.234-9.424 7.882-10.76 1.648-1.335 6.129-4.77 11.395-4.731zm364.551 14.646c-.637 1.457-2.003 4.701-1.163 5.884.674.949 1.995 1.293 3.658.385 1.662-.907 3.712-2.777 5.236-4.673 1.524-1.898 2.68-3.823 3.658-5.693.944-1.804 1.247-3.244 1.164-4.48-.083-1.239-1.33-1.814-2.66-1.734-.904.055-1.781.387-3.076 1.485-1.295 1.098-3.187 3.3-5.181 5.967 0 0-.998 1.402-1.636 2.859zm-81.014-.023c-.637 1.457-2.004 4.702-1.164 5.885.674.947 1.995 1.292 3.658.384 1.662-.907 3.713-2.777 5.237-4.674 1.524-1.897 2.679-3.822 3.657-5.692.944-1.804 1.247-3.244 1.164-4.482-.083-1.237-1.194-1.877-2.525-1.796-.903.055-2.271.81-3.566 1.908-1.295 1.098-2.831 2.94-4.826 5.608 0 0-.998 1.402-1.635 2.859zm-66.835 0c-.637 1.457-2.004 4.702-1.164 5.885.674.947 1.995 1.292 3.658.384 1.662-.907 3.714-2.777 5.238-4.674 1.523-1.897 2.678-3.822 3.657-5.692.944-1.804 1.246-3.244 1.164-4.482-.084-1.237-1.399-2.158-2.661-1.732-2.604.88-5.53 3.783-7.206 6.077-1.608 2.2-2.049 2.777-2.686 4.234zm-3.519-7.286c2.217-2.97 6.915-6.537 11.571-7.157 2.245-.299 3.617-.014 4.47.368 1.293.581 1.653 1.504 2.289 1.857.791.441 1.932-1.32 2.535-1.887 1.363-1.28 2.611-1.873 4.018-.797 1.926 1.47 1.008 3.71.722 4.619-.287.91-.882 3.01-3.735 8.217-2.806 5.119-3.748 7.428-3.028 7.923.721.494 4.341-2.528 6.28-4.397 1.94-1.87 4.498-3.7 10.061-10.805 5.696-7.275 7.035-9.036 10.593-15.346 3.855-6.837 5.593-8.184 7.371-7.23 2.618 1.402 1.61 5.27-.784 9.673-2.556 4.702-5.079 8.07-6.631 10.684-1.552 2.612-1.813 3.783-1.176 4.333.638.55 2.937-.907 4.85-2.805 1.912-1.897 4.338-3.905 5.617-4.608 1.75-.963 3.3.071 3.951 2.245.586 1.954-.532 3.817-2.155 6.997-1.843 3.61-3.728 7.134-4.559 8.701-.832 1.568-.665 2.448-.194 2.75.471.302 2.688-.137 4.96-2.062 2.272-1.925 3.479-3.07 8.509-9.605 5.118-6.65 9.657-8.42 13.008-8.822 3.401-.408 4.684.617 5.132.964.765.593 1.09 1.38 1.678 1.354.684-.03 1.823-1.464 2.409-2.068 1.158-1.196 2.486-1.793 4.153-.368 1.399 1.195.819 3.003.209 5.01-.609 2.007-2.2 5.222-4.223 8.741-2.022 3.52-3.026 5.592-2.332 6.496.695.904 4.303-2.35 4.88-2.819.577-.469 3.985-3.557 7.198-7.544 3.215-3.987 6.679-7.781 7.704-8.826 1.025-1.045 2.856-2.342 4.156-1.155 1.183 1.08 1.386 2.145.887 3.85-.581 1.984-1.053 3.189-.222 3.574.831.385 3.31-1.143 4.461-1.925 1.462-.993 4.537-3.51 6.218-4.701 1.586-1.124 3.095-1.76 4.284.055.97 1.48.594 2.854.169 4.588-.425 1.736-.45 2.481-.169 2.643.358.205 1.331-.11 3.963-2.53s4.295-3.914 5.68-4.793c1.386-.88 2.965-1.558 4.073-.21 1.108 1.346.984 2.704.222 5.058-.762 2.354-1.745 4.07-3.796 7.864-2.05 3.794-3.38 6.269-2.688 6.846.693.578 4.157-.825 6.041-2.64 1.884-1.814 2.742-2.501 7.648-8.468 4.904-5.966 7.616-7.632 10.72-8.54 3.103-.907 4.678-.658 6.138-.206 1.458.452 2.268 1.646 2.802 1.792.671.185 1.179-.19 1.899-.987.721-.798 1.858-2.091 3.381-1.954 1.524.137 2.634 1.8 2.479 3.24-.159 1.476-1.134 3.794-2.455 6.481-1.322 2.688-3.379 6.78-4.239 8.32-.859 1.54-1.09 2.98-.417 3.332.44.23 1.506-.345 3.957-2.67 1.725-1.639 2.837-2.8 3.895-2.019 1.44 1.064-1.806 5.447-5.397 8.39-3.074 2.52-6.242 3.077-8.128 2.843-1.555-.194-2.688-.706-3.105-3.234-.166-1.155-.648-1.977-2.137-1.123-1.621.93-3.141 2.054-5.413 3.099-2.272 1.044-4.887 1.356-6.902.368-2.015-.988-2.26-3.026-2.316-3.962-.055-.934.222-1.979-.609-2.227-.48-.143-1.635 1.1-3.243 2.337-1.606 1.238-5.54 3.767-7.924 4.4-2.383.632-3.904-.062-4.213-.326-.31-.263-1.523-1.351-.525-3.826.997-2.475 2.466-5.06 3.934-7.727 1.469-2.666 2.55-5.113 1.719-5.746-.832-.632-2.559 1.083-4.711 3.41-2.586 2.795-4.378 5.691-7.149 9.376-2.771 3.684-5.348 5.663-7.205 5.003-1.856-.659-1.385-3.712-.859-4.811.527-1.1 2.799-5.224 4.24-7.616 1.441-2.392 2.641-4.906 1.571-5.39-1.117-.503-3.912 2.292-5.07 3.61-1.145 1.303-1.738 2.357-4.592 6.179-2.854 3.822-5.182 6.599-6.844 7.37-1.663.77-1.995.796-2.827.328-.831-.467-1.884-2.392-.554-4.839 1.331-2.446 2.937-4.756 3.796-6.02.86-1.266 1.524-2.64.804-2.998-.721-.357-2.743 1.128-4.489 3.052-1.746 1.924-4.434 4.592-7.536 7.011-3.105 2.42-6.819 4.675-9.23 4.262-2.41-.413-2.492-2.472-2.686-3.516-.194-1.046-.859-1.708-2.217-.801-1.335.893-3.033 2.164-4.514 2.844-2.217 1.017-4.355 1.325-5.846 1.174-2.879-.291-4.269-2.23-4.192-4.206.077-1.976-.34-2.71-1.367-2.023-1.024.688-3.643 3.229-7.578 4.988-3.935 1.76-6.013 1.76-7.094.467-1.081-1.292-.942-3.106 1.275-6.873 2.216-3.767 3.602-5.967 4.101-7.837.498-1.869-1.801-2.117-4.24.606-2.286 2.552-4.295 6.02-7.537 9.87-3.242 3.85-5.015 6.04-7.315 5.005-2.411-1.087-2.461-3.186.431-7.018 2.536-3.361 4.793-6.13 3.432-6.694-.753-.312-2.253.88-3.609 2.172-1.359 1.292-4.323 4.432-7.869 7.264-3.547 2.832-7.614 4.674-9.787 4.605-1.717-.054-2.597-1.426-2.743-2.887-.171-1.718-.748-2.392-2.106-1.511-1.357.879-4.71 3.079-6.788 3.794-2.078.715-5.292.33-6.512-.77-1.219-1.1-2.604-3.822-.637-8.964 1.967-5.141 3.657-6.544 5.874-9.513zm184.46-1.906c.239 0 .465-.008.677-.026a1.67 1.67 0 00.569-.132.9.9 0 00.398-.337c.098-.15.15-.363.15-.634 0-.23-.046-.412-.134-.547a.907.907 0 00-.345-.314 1.5 1.5 0 00-.48-.148 3.894 3.894 0 00-.54-.04h-1.402v2.178h1.107zm.467-3.037c.811 0 1.41.16 1.801.482.387.327.583.816.583 1.472 0 .618-.17 1.07-.514 1.357-.341.285-.768.455-1.276.506l1.946 3.023h-1.137l-1.854-2.943h-1.123V34.6h-1.061v-6.84h2.635zm-4.807 5.39c.243.611.58 1.142 1.011 1.59.432.449.94.8 1.527 1.057a4.776 4.776 0 001.912.382c.674 0 1.302-.128 1.886-.382a4.752 4.752 0 001.518-1.057 4.86 4.86 0 001.012-1.59 5.3 5.3 0 00.365-1.993c0-.7-.12-1.353-.365-1.958a4.792 4.792 0 00-1.012-1.573 4.82 4.82 0 00-1.518-1.049 4.649 4.649 0 00-1.886-.383 4.739 4.739 0 00-3.439 1.432 4.79 4.79 0 00-1.011 1.573 5.19 5.19 0 00-.366 1.958c0 .718.122 1.384.366 1.993zm-.959-4.297a5.857 5.857 0 011.27-1.844 5.944 5.944 0 011.87-1.23 5.843 5.843 0 012.269-.446c.798 0 1.551.149 2.259.445.706.298 1.324.71 1.854 1.23a5.92 5.92 0 011.264 1.845c.31.71.466 1.479.466 2.304a5.81 5.81 0 01-.466 2.338 5.963 5.963 0 01-1.264 1.863 5.666 5.666 0 01-1.854 1.227 5.844 5.844 0 01-2.259.44 5.901 5.901 0 01-2.269-.44 5.734 5.734 0 01-1.87-1.227 5.912 5.912 0 01-1.27-1.862 5.784 5.784 0 01-.467-2.339c0-.825.155-1.593.467-2.304z" fill="#333"/>
</svg>
